<svg xmlns="http://www.w3.org/2000/svg" xmlns:xlink="http://www.w3.org/1999/xlink" width="1080" zoomAndPan="magnify" viewBox="0 0 810 809.999993" height="1080" preserveAspectRatio="xMidYMid meet" version="1.0"><path stroke-linecap="round" transform="matrix(28.124999, 0, 0, 28.124999, 67.500007, 67.500024)" fill="none" stroke-linejoin="round" d="M 10.300834 13.694861 L 20.101945 3.89736 M 10.579445 14.135555 L 12.801945 18.580417 C 13.339028 19.654445 13.6075 20.191667 13.945834 20.335556 C 14.239445 20.460556 14.575 20.437917 14.849167 20.274722 C 15.165139 20.086667 15.359167 19.518333 15.747223 18.381806 L 19.946251 6.084305 C 20.284445 5.094027 20.453473 4.599027 20.337779 4.271388 C 20.237084 3.986527 20.013056 3.76236 19.728056 3.661666 C 19.400556 3.545972 18.905417 3.714999 17.91514 4.053194 L 5.617639 8.252361 C 4.481111 8.640416 3.912917 8.834444 3.724722 9.150277 C 3.561528 9.424444 3.538889 9.760139 3.663889 10.053611 C 3.807917 10.391944 4.345 10.660555 5.419167 11.1975 L 9.864028 13.42 C 10.040972 13.508472 10.129445 13.552639 10.206111 13.611805 C 10.274167 13.664305 10.335139 13.725278 10.387639 13.793333 C 10.446806 13.87 10.490972 13.958472 10.579445 14.135555 Z M 10.579445 14.135555 " stroke="#ffffff" stroke-width="2" stroke-opacity="1" stroke-miterlimit="4"/></svg>