<svg xmlns="http://www.w3.org/2000/svg" xmlns:xlink="http://www.w3.org/1999/xlink" width="2000" zoomAndPan="magnify" viewBox="0 0 1500 1499.999933" height="2000" preserveAspectRatio="xMidYMid meet" version="1.0"><defs><clipPath id="2d8ad1adcf"><path d="M 116 42 L 1384 42 L 1384 1457.828125 L 116 1457.828125 Z M 116 42 " clip-rule="nonzero"/></clipPath></defs><path fill="#142d4c" d="M 900.753906 1197.511719 C 900.011719 1216.585938 911.488281 1231.449219 925.394531 1243.019531 C 940.714844 1254.402344 962.160156 1264.609375 988.675781 1272.945312 C 1041.703125 1289.617188 1114.574219 1299.753906 1194.722656 1299.753906 L 1200.023438 1299.753906 L 1200.023438 1297.257812 C 1038.972656 1297.257812 920.707031 1251.195312 920.707031 1197.507812 L 900.757812 1197.507812 Z M 900.753906 1197.511719 " fill-opacity="1" fill-rule="nonzero"/><path fill="#142d4c" d="M 900.753906 1202.488281 C 900.011719 1183.414062 911.488281 1168.550781 925.394531 1156.980469 C 940.714844 1145.597656 962.160156 1135.390625 988.675781 1127.054688 C 1041.703125 1110.382812 1114.574219 1100.246094 1194.722656 1100.246094 L 1200.023438 1100.246094 L 1200.023438 1102.742188 C 1038.972656 1102.742188 920.707031 1148.804688 920.707031 1202.488281 Z M 900.753906 1202.488281 " fill-opacity="1" fill-rule="nonzero"/><path fill="#142d4c" d="M 1499.246094 1197.511719 C 1499.988281 1216.585938 1488.511719 1231.449219 1474.605469 1243.019531 C 1459.285156 1254.402344 1437.839844 1264.609375 1411.324219 1272.945312 C 1358.296875 1289.617188 1285.425781 1299.753906 1205.277344 1299.753906 L 1199.976562 1299.753906 L 1199.976562 1297.257812 C 1361.027344 1297.257812 1479.289062 1251.195312 1479.289062 1197.507812 L 1499.242188 1197.507812 Z M 1499.246094 1197.511719 " fill-opacity="1" fill-rule="nonzero"/><path fill="#142d4c" d="M 1499.246094 1202.488281 C 1499.988281 1183.414062 1488.511719 1168.550781 1474.605469 1156.980469 C 1459.285156 1145.597656 1437.839844 1135.390625 1411.324219 1127.054688 C 1358.296875 1110.382812 1285.425781 1100.246094 1205.277344 1100.246094 L 1199.976562 1100.246094 L 1199.976562 1102.742188 C 1361.027344 1102.742188 1479.289062 1148.804688 1479.289062 1202.488281 Z M 1499.246094 1202.488281 " fill-opacity="1" fill-rule="nonzero"/><path fill="#142d4c" d="M 1259.875 1200.023438 C 1259.875 1233.078125 1233.078125 1259.875 1200.023438 1259.875 C 1166.96875 1259.875 1140.171875 1233.078125 1140.171875 1200.023438 C 1140.171875 1166.96875 1166.96875 1140.171875 1200.023438 1140.171875 C 1233.078125 1140.171875 1259.875 1166.96875 1259.875 1200.023438 Z M 1259.875 1200.023438 " fill-opacity="1" fill-rule="nonzero"/><path fill="#142d4c" d="M 986.636719 1409.835938 C 999.605469 1423.847656 1018.230469 1426.246094 1036.246094 1424.589844 C 1055.125 1421.808594 1077.507812 1413.863281 1102.148438 1401.007812 C 1151.433594 1375.296875 1210.132812 1330.9375 1266.804688 1274.261719 L 1270.550781 1270.515625 L 1268.789062 1268.753906 C 1154.910156 1382.632812 1038.710938 1433.683594 1000.75 1395.722656 L 986.644531 1409.832031 Z M 986.636719 1409.835938 " fill-opacity="1" fill-rule="nonzero"/><path fill="#142d4c" d="M 990.160156 1413.355469 C 976.148438 1400.390625 973.75 1381.765625 975.402344 1363.75 C 978.1875 1344.871094 986.132812 1322.488281 998.988281 1297.847656 C 1024.699219 1248.558594 1069.058594 1189.863281 1125.730469 1133.191406 L 1129.480469 1129.445312 L 1131.242188 1131.207031 C 1017.363281 1245.085938 966.308594 1361.285156 1004.273438 1399.246094 L 990.164062 1413.351562 Z M 990.160156 1413.355469 " fill-opacity="1" fill-rule="nonzero"/><path fill="#142d4c" d="M 1409.839844 986.636719 C 1423.851562 999.601562 1426.246094 1018.226562 1424.59375 1036.242188 C 1421.808594 1055.121094 1413.863281 1077.503906 1401.011719 1102.144531 C 1375.300781 1151.433594 1330.941406 1210.128906 1274.265625 1266.800781 L 1270.519531 1270.546875 L 1268.757812 1268.785156 C 1382.636719 1154.90625 1433.6875 1038.707031 1395.726562 1000.746094 L 1409.835938 986.640625 Z M 1409.839844 986.636719 " fill-opacity="1" fill-rule="nonzero"/><path fill="#142d4c" d="M 1413.359375 990.15625 C 1400.394531 976.144531 1381.769531 973.746094 1363.753906 975.402344 C 1344.875 978.183594 1322.492188 986.128906 1297.847656 998.984375 C 1248.5625 1024.695312 1189.867188 1069.054688 1133.195312 1125.730469 L 1129.449219 1129.476562 L 1131.210938 1131.238281 C 1245.089844 1017.359375 1361.289062 966.308594 1399.25 1004.269531 L 1413.355469 990.160156 Z M 1413.359375 990.15625 " fill-opacity="1" fill-rule="nonzero"/><path fill="#142d4c" d="M 990.160156 986.640625 C 976.148438 999.605469 973.75 1018.230469 975.402344 1036.246094 C 978.1875 1055.125 986.132812 1077.507812 998.988281 1102.152344 C 1024.699219 1151.4375 1069.058594 1210.132812 1125.730469 1266.804688 L 1129.480469 1270.554688 L 1131.242188 1268.789062 C 1017.363281 1154.910156 966.308594 1038.714844 1004.269531 1000.753906 L 990.164062 986.644531 Z M 990.160156 986.640625 " fill-opacity="1" fill-rule="nonzero"/><path fill="#142d4c" d="M 986.636719 990.160156 C 999.605469 976.152344 1018.230469 973.753906 1036.246094 975.40625 C 1055.125 978.191406 1077.507812 986.136719 1102.148438 998.992188 C 1151.433594 1024.699219 1210.132812 1069.0625 1266.804688 1125.734375 L 1270.550781 1129.480469 L 1268.789062 1131.246094 C 1154.910156 1017.367188 1038.710938 966.3125 1000.75 1004.273438 Z M 986.636719 990.160156 " fill-opacity="1" fill-rule="nonzero"/><path fill="#142d4c" d="M 1413.359375 1409.839844 C 1400.394531 1423.851562 1381.769531 1426.25 1363.753906 1424.597656 C 1344.875 1421.8125 1322.492188 1413.867188 1297.847656 1401.011719 C 1248.5625 1375.304688 1189.867188 1330.941406 1133.195312 1274.269531 L 1129.449219 1270.523438 L 1131.210938 1268.757812 C 1245.089844 1382.636719 1361.289062 1433.691406 1399.25 1395.730469 Z M 1413.359375 1409.839844 " fill-opacity="1" fill-rule="nonzero"/><path fill="#142d4c" d="M 1409.839844 1413.363281 C 1423.847656 1400.398438 1426.246094 1381.773438 1424.59375 1363.757812 C 1421.808594 1344.878906 1413.863281 1322.496094 1401.011719 1297.851562 C 1375.300781 1248.566406 1330.9375 1189.871094 1274.265625 1133.195312 L 1270.519531 1129.449219 L 1268.757812 1131.214844 C 1382.636719 1245.09375 1433.6875 1361.289062 1395.726562 1399.25 L 1409.832031 1413.359375 Z M 1409.839844 1413.363281 " fill-opacity="1" fill-rule="nonzero"/><path fill="#142d4c" d="M 1202.488281 900.753906 C 1183.414062 900.011719 1168.550781 911.488281 1156.980469 925.394531 C 1145.597656 940.714844 1135.390625 962.160156 1127.054688 988.671875 C 1110.382812 1041.703125 1100.246094 1114.574219 1100.246094 1194.722656 L 1100.246094 1200.023438 L 1102.742188 1200.023438 C 1102.742188 1038.972656 1148.804688 920.707031 1202.488281 920.707031 Z M 1202.488281 900.753906 " fill-opacity="1" fill-rule="nonzero"/><path fill="#142d4c" d="M 1197.511719 900.753906 C 1216.585938 900.011719 1231.449219 911.488281 1243.019531 925.394531 C 1254.402344 940.714844 1264.609375 962.160156 1272.945312 988.671875 C 1289.617188 1041.703125 1299.753906 1114.574219 1299.753906 1194.722656 L 1299.753906 1200.023438 L 1297.257812 1200.023438 C 1297.257812 1038.972656 1251.195312 920.707031 1197.507812 920.707031 L 1197.507812 900.757812 Z M 1197.511719 900.753906 " fill-opacity="1" fill-rule="nonzero"/><path fill="#142d4c" d="M 1202.488281 1499.246094 C 1183.414062 1499.988281 1168.550781 1488.511719 1156.980469 1474.605469 C 1145.597656 1459.285156 1135.390625 1437.839844 1127.054688 1411.324219 C 1110.382812 1358.296875 1100.246094 1285.425781 1100.246094 1205.277344 L 1100.246094 1199.976562 L 1102.742188 1199.976562 C 1102.742188 1361.027344 1148.804688 1479.289062 1202.488281 1479.289062 Z M 1202.488281 1499.246094 " fill-opacity="1" fill-rule="nonzero"/><path fill="#142d4c" d="M 1197.511719 1499.246094 C 1216.585938 1499.988281 1231.449219 1488.511719 1243.019531 1474.605469 C 1254.402344 1459.285156 1264.609375 1437.839844 1272.945312 1411.324219 C 1289.617188 1358.296875 1299.753906 1285.425781 1299.753906 1205.277344 L 1299.753906 1199.976562 L 1297.257812 1199.976562 C 1297.257812 1361.027344 1251.195312 1479.289062 1197.507812 1479.289062 L 1197.507812 1499.242188 Z M 1197.511719 1499.246094 " fill-opacity="1" fill-rule="nonzero"/><g clip-path="url(#2d8ad1adcf)"><path fill="#ececec" d="M 1288.398438 799.660156 C 1275.75 783.105469 1261.769531 766.582031 1247.054688 750.085938 C 1365.535156 616.609375 1413.949219 485.230469 1362.648438 396.292969 C 1327.390625 335.199219 1251.953125 302.914062 1144.539062 302.914062 C 1100.113281 302.914062 1050.734375 309.222656 998.78125 320.003906 C 942.414062 150.425781 852.773438 42.585938 750 42.585938 C 647.308594 42.585938 557.722656 150.253906 501.355469 319.664062 C 449.742188 309.054688 400.480469 302.914062 355.460938 302.914062 C 248.046875 302.914062 172.636719 335.199219 137.351562 396.265625 C 86.019531 485.199219 134.433594 616.554688 252.914062 750.027344 C 238.226562 766.523438 224.21875 783.050781 211.601562 799.605469 C 119.835938 919.722656 93.488281 1027.703125 137.351562 1103.707031 C 172.605469 1164.769531 248.046875 1197.085938 355.460938 1197.085938 C 399.886719 1197.085938 449.292969 1190.773438 501.242188 1179.996094 C 557.582031 1349.574219 647.226562 1457.414062 750 1457.414062 C 852.714844 1457.414062 942.273438 1349.746094 998.640625 1180.363281 C 1050.253906 1190.945312 1099.488281 1197.085938 1144.507812 1197.085938 C 1251.921875 1197.085938 1327.363281 1164.800781 1362.621094 1103.707031 C 1406.507812 1027.703125 1380.164062 919.722656 1288.398438 799.660156 Z M 1144.539062 359.507812 C 1204.527344 359.507812 1282.566406 370.796875 1313.636719 424.589844 C 1348.921875 485.710938 1310.722656 592.386719 1208.375 708.941406 C 1162.902344 663.214844 1110.128906 618.535156 1052.121094 576.089844 C 1044.3125 503.421875 1031.691406 435.566406 1015.023438 374.164062 C 1061.261719 364.855469 1105.0625 359.507812 1144.539062 359.507812 Z M 877.332031 970.542969 C 835.199219 994.851562 792.5 1016.667969 750 1036.246094 C 707.496094 1016.667969 664.824219 994.851562 622.664062 970.542969 C 579.34375 945.527344 539.046875 919.664062 501.640625 893.378906 C 497.59375 847.878906 495.328125 800.054688 495.328125 750 C 495.328125 700.113281 497.566406 652.40625 501.582031 606.988281 C 539.867188 579.992188 580.21875 553.933594 622.636719 529.457031 C 664.769531 505.121094 707.46875 483.359375 749.96875 463.75 C 792.472656 483.359375 835.171875 505.121094 877.304688 529.457031 C 919.722656 553.960938 960.101562 580.023438 998.386719 607.015625 C 1002.460938 652.433594 1004.667969 700.113281 1004.667969 750 C 1004.667969 800.054688 1002.433594 847.847656 998.359375 893.378906 C 960.976562 919.664062 920.65625 945.527344 877.332031 970.542969 Z M 989.699219 967.601562 C 982.230469 1020.203125 972.183594 1068.875 960.101562 1113.214844 C 914.570312 1101.1875 867.089844 1085.199219 818.816406 1065.875 C 847.90625 1051.359375 876.9375 1036.132812 905.628906 1019.550781 C 934.71875 1002.773438 962.730469 985.371094 989.699219 967.601562 Z M 680.984375 1065.960938 C 632.765625 1085.230469 585.398438 1101.1875 539.925781 1113.214844 C 527.8125 1068.875 517.796875 1020.230469 510.328125 967.601562 C 537.292969 985.371094 565.277344 1002.746094 594.367188 1019.550781 C 623.203125 1036.191406 652.121094 1051.441406 680.984375 1065.960938 Z M 441.707031 848.753906 C 399.828125 815.929688 362.675781 782.878906 330.277344 750.167969 C 363.46875 716.667969 401.015625 683.699219 441.707031 651.726562 C 439.8125 683.8125 438.738281 716.554688 438.738281 750 C 438.738281 783.617188 439.8125 816.554688 441.707031 848.753906 Z M 510.269531 532.765625 C 517.742188 479.992188 527.8125 431.238281 539.925781 386.785156 C 585.453125 398.8125 632.90625 414.828125 681.152344 434.125 C 652.09375 448.640625 623.058594 463.863281 594.367188 480.445312 C 565.390625 497.171875 537.519531 514.796875 510.269531 532.765625 Z M 818.984375 434.039062 C 867.175781 414.769531 914.601562 398.78125 960.074219 386.785156 C 972.183594 431.238281 982.257812 480.023438 989.726562 532.796875 C 962.476562 514.796875 934.605469 497.199219 905.601562 480.445312 C 876.796875 463.808594 847.875 448.554688 818.984375 434.039062 Z M 1058.316406 651.753906 C 1099.007812 683.730469 1136.53125 716.695312 1169.722656 750.199219 C 1137.320312 782.878906 1100.167969 815.929688 1058.289062 848.753906 C 1060.214844 816.554688 1061.261719 783.617188 1061.261719 750 C 1061.261719 716.582031 1060.214844 683.84375 1058.316406 651.753906 Z M 750 99.179688 C 820.625 99.179688 893.972656 185.738281 943.773438 332.878906 C 881.550781 349.433594 816.296875 372.582031 750.421875 401.554688 C 684.066406 372.15625 618.789062 348.953125 556.421875 332.425781 C 606.167969 185.539062 679.457031 99.179688 750 99.179688 Z M 186.386719 424.589844 C 217.429688 370.824219 295.472656 359.535156 355.488281 359.535156 C 394.988281 359.535156 438.765625 364.855469 485 374.191406 C 468.363281 435.570312 455.742188 503.453125 447.933594 576.089844 C 389.867188 618.535156 337.125 663.214844 291.652344 708.941406 C 189.273438 592.359375 151.074219 485.679688 186.386719 424.589844 Z M 355.460938 1140.492188 C 295.472656 1140.492188 217.429688 1129.203125 186.386719 1075.410156 C 155.148438 1021.277344 180.699219 933.304688 256.5625 834.011719 C 267.429688 819.777344 279.257812 805.546875 291.765625 791.339844 C 336.558594 836.445312 388.992188 881.324219 447.960938 924.390625 C 455.769531 996.886719 468.363281 1064.574219 484.972656 1125.804688 C 438.738281 1135.144531 394.933594 1140.492188 355.460938 1140.492188 Z M 750 1400.820312 C 679.371094 1400.820312 606.027344 1314.261719 556.253906 1167.121094 C 618.476562 1150.539062 683.671875 1127.417969 749.574219 1098.445312 C 815.929688 1127.871094 881.238281 1151.046875 943.605469 1167.570312 C 893.832031 1314.460938 820.542969 1400.820312 750 1400.820312 Z M 1313.609375 1075.410156 C 1289.417969 1117.375 1229.3125 1140.492188 1144.507812 1140.492188 C 1105.007812 1140.492188 1061.261719 1135.171875 1015.023438 1125.835938 C 1031.632812 1064.574219 1044.226562 996.859375 1052.066406 924.390625 C 1111.035156 881.324219 1163.46875 836.472656 1208.261719 791.371094 C 1220.742188 805.546875 1232.570312 819.777344 1243.433594 834.011719 C 1319.296875 933.304688 1344.878906 1021.277344 1313.609375 1075.410156 Z M 1313.609375 1075.410156 " fill-opacity="1" fill-rule="nonzero"/></g><path fill="#ececec" d="M 750 608.515625 C 671.984375 608.515625 608.515625 671.984375 608.515625 750 C 608.515625 828.011719 671.984375 891.484375 750 891.484375 C 827.984375 891.484375 891.480469 828.011719 891.480469 750 C 891.480469 671.984375 828.011719 608.515625 750 608.515625 Z M 750 608.515625 " fill-opacity="1" fill-rule="nonzero"/></svg>